HIERARCHY
ROOT Hips
{
	OFFSET -0.001795 -0.223333 0.028219
	CHANNELS 6 Xposition Yposition Zposition Zrotation Yrotation Xrotation 
	JOINT LeftUpLeg
	{
		OFFSET 0.069520 -0.091406 -0.006815
		CHANNELS 3 Zrotation Yrotation Xrotation
		JOINT LeftLeg
		{
			OFFSET 0.034277 -0.375199 -0.004496
			CHANNELS 3 Zrotation Yrotation Xrotation
			JOINT LeftFoot
			{
				OFFSET -0.013596 -0.397961 -0.043693
				CHANNELS 3 Zrotation Yrotation Xrotation
				JOINT LeftToe
				{
					OFFSET 0.026358 -0.055791 0.119288
					CHANNELS 3 Zrotation Yrotation Xrotation
					End Site
					{
						OFFSET 0.000000 0.000000 0.000000
					}
				}
			}
		}
	}
	JOINT RightUpLeg
	{
		OFFSET -0.067670 -0.090522 -0.004320
		CHANNELS 3 Zrotation Yrotation Xrotation
		JOINT RightLeg
		{
			OFFSET -0.038290 -0.382569 -0.008850
			CHANNELS 3 Zrotation Yrotation Xrotation
			JOINT RightFoot
			{
				OFFSET 0.015774 -0.398415 -0.042312
				CHANNELS 3 Zrotation Yrotation Xrotation
				JOINT RightToe
				{
					OFFSET -0.025372 -0.048144 0.123348
					CHANNELS 3 Zrotation Yrotation Xrotation
					End Site
					{
						OFFSET 0.000000 0.000000 0.000000
					}
				}
			}
		}
	}
	JOINT Spine
	{
		OFFSET -0.002533 0.108963 -0.026696
		CHANNELS 3 Zrotation Yrotation Xrotation
		JOINT Spine1
		{
			OFFSET 0.005487 0.135180 0.001092
			CHANNELS 3 Zrotation Yrotation Xrotation
			JOINT Spine2
			{
				OFFSET 0.001457 0.052922 0.025425
				CHANNELS 3 Zrotation Yrotation Xrotation
				JOINT Neck
				{
					OFFSET -0.002778 0.213870 -0.042857
					CHANNELS 3 Zrotation Yrotation Xrotation
					JOINT Head
					{
						OFFSET 0.005152 0.064970 0.051349
						CHANNELS 3 Zrotation Yrotation Xrotation
						End Site
						{
							OFFSET 0.000000 0.000000 0.000000
						}
					}
				}
				JOINT LeftShoulder
				{
					OFFSET 0.078845 0.121749 -0.034090
					CHANNELS 3 Zrotation Yrotation Xrotation
					JOINT LeftArm
					{
						OFFSET 0.090977 0.030469 -0.008868
						CHANNELS 3 Zrotation Yrotation Xrotation
						JOINT LeftForeArm
						{
							OFFSET 0.259612 -0.012772 -0.027456
							CHANNELS 3 Zrotation Yrotation Xrotation
							JOINT LeftHand
							{
								OFFSET 0.249234 0.008986 -0.001171
								CHANNELS 3 Zrotation Yrotation Xrotation
								End Site
								{
									OFFSET 0.000000 0.000000 0.000000
								}
							}
						}
					}
				}
				JOINT RightShoulder
				{
					OFFSET -0.081759 0.118833 -0.038615
					CHANNELS 3 Zrotation Yrotation Xrotation
					JOINT RightArm
					{
						OFFSET -0.096012 0.032551 -0.009143
						CHANNELS 3 Zrotation Yrotation Xrotation
						JOINT RightForeArm
						{
							OFFSET -0.253742 -0.013329 -0.021401
							CHANNELS 3 Zrotation Yrotation Xrotation
							JOINT RightHand
							{
								OFFSET -0.255298 0.007772 -0.005559
								CHANNELS 3 Zrotation Yrotation Xrotation
								End Site
								{
									OFFSET 0.000000 0.000000 0.000000
								}
							}
						}
					}
				}
			}
		}
	}
}
MOTION
Frames: 10
Frame Time: 0.05000000
-0.059361 0.953282 1.247763 -1.392884 -7.235135 -2.384586 3.130302 -0.892881 -16.597145 -6.045744 3.408331 45.533860 8.235427 17.076878 5.083763 0.000000 0.000000 0.000000 6.931709 -0.359682 1.256336 0.930468 0.282052 9.091618 -3.794008 -10.303502 2.893760 0.000000 0.000000 0.000000 -2.059345 -0.167692 9.912029 5.395197 -1.048772 -21.461395 1.121458 5.029663 27.385639 -1.560072 2.899688 -35.041017 0.000000 0.000000 0.000000 -29.865010 -2.780906 -0.202392 -45.837978 -9.719806 -4.089672 -13.874435 -27.310406 4.743083 0.000000 0.000000 0.000000 16.144321 10.664456 4.649384 53.480248 7.261739 -4.407143 4.615187 26.619429 2.141904 0.000000 0.000000 0.000000 
-0.063022 0.949022 1.310925 -0.694766 -9.647412 -2.430753 3.610221 -0.866325 -20.927019 -6.751036 2.915892 31.751623 9.176996 18.522221 6.337556 0.000000 0.000000 0.000000 5.579620 -1.045198 6.658881 0.371744 0.292838 7.110914 -3.251886 -8.329513 1.105125 0.000000 0.000000 0.000000 -2.645392 -0.089156 9.676281 5.044555 -0.927027 -22.281452 2.194384 7.696651 28.840403 -3.103346 3.837317 -35.452642 0.000000 0.000000 0.000000 -30.168926 -1.577032 -1.452308 -46.335500 -8.617223 -4.492855 -14.340443 -26.326164 4.637588 0.000000 0.000000 0.000000 15.235343 11.033671 5.034753 53.395242 10.425506 -3.179437 4.595432 28.274917 2.371518 0.000000 0.000000 0.000000 
-0.066154 0.937424 1.376198 -0.808460 -12.190311 -2.472678 4.434733 -0.573582 -21.349039 -4.491296 0.989482 12.927097 8.536211 17.100370 8.723400 0.000000 0.000000 0.000000 4.381217 -1.570663 12.911579 0.157741 0.160070 3.837957 -2.288966 -5.157179 -0.539691 0.000000 0.000000 0.000000 -2.201294 -0.108401 10.013505 4.497767 -0.856297 -21.980049 2.870099 9.777478 28.159255 -3.253797 3.997192 -36.003666 0.000000 0.000000 0.000000 -29.839578 -0.643799 -2.291397 -47.299330 -6.528830 -5.191114 -15.051568 -24.607518 4.451205 0.000000 0.000000 0.000000 13.955147 11.617032 5.267920 53.487671 12.694626 -2.042909 3.393523 30.594880 2.331696 0.000000 0.000000 0.000000 
-0.069021 0.922027 1.445680 -0.768181 -14.352463 -2.552123 5.610795 -0.188090 -21.604536 -2.074418 0.311013 -1.832525 7.189886 14.585176 9.619420 0.000000 0.000000 0.000000 3.042838 -1.647729 17.718618 0.251395 0.183530 4.452917 -1.834671 -3.069913 -2.014540 0.000000 0.000000 0.000000 -2.100210 -0.105045 8.813392 4.325839 -0.925256 -21.238168 3.399120 13.179707 28.201158 -1.878374 3.681943 -35.284438 0.000000 0.000000 0.000000 -29.629784 -1.375995 -2.609390 -47.028512 -4.542304 -5.653724 -14.268938 -21.979847 3.692082 0.000000 0.000000 0.000000 15.403350 11.747207 5.864332 51.897884 14.886563 -1.161309 3.176806 31.433377 2.434122 0.000000 0.000000 0.000000 
-0.071627 0.906166 1.520663 -0.368391 -15.721877 -3.377697 5.139201 -0.206685 -21.777585 -1.858258 0.339611 -4.577393 7.205780 14.562026 7.018145 0.000000 0.000000 0.000000 0.925281 -1.305679 22.749818 -0.318213 0.307855 5.440651 -1.042641 -0.806274 -2.423202 0.000000 0.000000 0.000000 -3.162926 -0.012175 8.401204 4.907114 -1.082375 -21.433314 4.146962 14.628273 29.644868 -0.851919 3.312010 -35.781663 0.000000 0.000000 0.000000 -31.594907 -2.201716 -2.465223 -45.271663 -2.511630 -6.192054 -13.084873 -19.834795 3.090376 0.000000 0.000000 0.000000 17.730804 11.798077 6.302268 50.367604 16.543856 -0.745044 1.487575 32.595721 2.118370 0.000000 0.000000 0.000000 
-0.073400 0.898508 1.601730 0.284713 -15.211371 -4.250385 3.207969 -0.676930 -23.883116 -2.653790 0.420704 5.862865 6.908826 13.986480 9.174742 0.000000 0.000000 0.000000 -0.537711 -1.001140 25.368566 -0.969405 0.805206 11.111486 -0.268697 0.028905 -0.987607 0.000000 0.000000 0.000000 -4.105501 0.039079 7.315112 3.860829 -0.973989 -19.340325 4.738231 14.342815 28.812886 -0.279457 3.002355 -34.814660 0.000000 0.000000 0.000000 -30.986981 -2.248430 -2.402705 -46.273721 -1.920352 -6.457560 -11.235651 -17.087113 2.360224 0.000000 0.000000 0.000000 17.819795 11.840524 6.320775 51.843653 17.179541 -0.293328 1.241092 32.123042 2.032963 0.000000 0.000000 0.000000 
-0.074058 0.901587 1.684446 1.355715 -15.019951 -4.094375 1.402053 -1.158100 -26.086100 -3.442644 0.925734 15.464253 6.141573 12.878193 14.471309 0.000000 0.000000 0.000000 -3.598166 -0.233197 22.152270 0.176468 1.772150 24.053321 1.805262 -0.707316 7.383924 0.000000 0.000000 0.000000 -6.002148 0.151799 5.866362 4.734664 -1.170592 -19.663177 4.597746 13.937722 29.589825 1.282248 2.216927 -35.538322 0.000000 0.000000 0.000000 -30.710241 -1.786962 -2.518283 -45.963339 -1.893215 -6.525840 -11.643791 -15.192380 2.150087 0.000000 0.000000 0.000000 17.067921 11.098109 5.800439 53.971473 15.802012 -0.815925 1.870023 32.077516 2.236521 0.000000 0.000000 0.000000 
-0.074441 0.912311 1.761748 2.377930 -14.038029 -4.438723 -1.770067 -1.930370 -23.731849 -2.854331 0.925220 19.351871 6.123061 12.919307 11.662111 0.000000 0.000000 0.000000 -5.391025 0.024058 14.880693 2.800230 2.719516 40.290181 1.783513 -4.441375 15.412589 0.000000 0.000000 0.000000 -6.467821 0.197933 6.588178 3.691740 -0.857444 -19.860349 4.136429 11.703486 28.435822 0.396177 2.366477 -35.661503 0.000000 0.000000 0.000000 -30.017451 -2.657855 -1.155578 -45.677319 -2.589428 -6.372080 -12.325933 -14.737578 2.183792 0.000000 0.000000 0.000000 17.340946 11.450511 5.582262 54.855277 13.664505 -1.622918 2.312164 30.454215 2.093786 0.000000 0.000000 0.000000 
-0.075887 0.927488 1.831392 2.778701 -13.164027 -5.655230 -3.644864 -1.894461 -16.946371 -2.534136 0.716817 17.518140 5.837551 12.538745 9.828450 0.000000 0.000000 0.000000 -5.760845 0.080551 6.589391 6.259107 2.468219 53.446182 -2.417202 -11.847621 17.997617 0.000000 0.000000 0.000000 -6.049198 0.184606 8.057901 3.532829 -0.802910 -19.886724 2.869198 10.170094 28.405431 0.904779 1.968846 -35.876529 0.000000 0.000000 0.000000 -29.049268 -4.566669 0.667938 -45.610671 -4.202690 -5.978985 -10.346019 -16.665169 2.208780 0.000000 0.000000 0.000000 17.080966 11.507058 5.339279 56.358432 12.011158 -2.386590 2.768510 29.032526 2.046564 0.000000 0.000000 0.000000 
-0.078983 0.943691 1.895609 2.425057 -12.044518 -6.834548 -4.807499 -1.207390 -8.578049 -1.178705 0.170618 13.462537 5.505582 12.097144 8.089888 0.000000 0.000000 0.000000 -4.727308 0.244624 -1.372706 9.084249 0.973646 59.047699 -5.988374 -17.006250 15.425345 0.000000 0.000000 0.000000 -4.775526 0.094945 9.880900 3.410055 -0.749754 -20.084010 1.234123 7.389401 28.152061 0.790149 1.608701 -34.324973 0.000000 0.000000 0.000000 -28.201327 -5.497201 2.151639 -45.047747 -7.322960 -5.104733 -8.863545 -19.472594 2.395240 0.000000 0.000000 0.000000 18.537861 11.823204 5.086007 55.714640 10.306769 -3.173044 2.747121 28.060953 1.860398 0.000000 0.000000 0.000000 
